<mxfile host="Electron" agent="Mozilla/5.0 (Windows NT 10.0; Win64; x64) AppleWebKit/537.36 (KHTML, like Gecko) draw.io/28.0.6 Chrome/138.0.7204.100 Electron/37.2.3 Safari/537.36" version="28.0.6" pages="2">
  <diagram id="t4f9smnB7qsIz9YTrfJ5" name="Página-2">
    <mxGraphModel dx="661" dy="693" grid="1" gridSize="10" guides="1" tooltips="1" connect="1" arrows="1" fold="1" page="1" pageScale="1" pageWidth="827" pageHeight="1169" math="0" shadow="0">
      <root>
        <mxCell id="0" />
        <mxCell id="1" parent="0" />
        <mxCell id="vwDrhNzpsRFTPE5WMlNl-2" style="edgeStyle=none;shape=connector;rounded=0;orthogonalLoop=1;jettySize=auto;html=1;exitX=0.5;exitY=1;exitDx=0;exitDy=0;strokeColor=default;align=center;verticalAlign=middle;fontFamily=Helvetica;fontSize=11;fontColor=default;labelBackgroundColor=default;endArrow=none;endFill=0;" edge="1" parent="1" source="4u-6r5kAlAClLr3WJw1b-2" target="4u-6r5kAlAClLr3WJw1b-4">
          <mxGeometry relative="1" as="geometry" />
        </mxCell>
        <mxCell id="vwDrhNzpsRFTPE5WMlNl-5" value="1:1" style="edgeLabel;html=1;align=center;verticalAlign=middle;resizable=0;points=[];fontFamily=Helvetica;fontSize=11;fontColor=default;labelBackgroundColor=default;" vertex="1" connectable="0" parent="vwDrhNzpsRFTPE5WMlNl-2">
          <mxGeometry x="-0.2622" y="-3" relative="1" as="geometry">
            <mxPoint x="20" y="-12" as="offset" />
          </mxGeometry>
        </mxCell>
        <mxCell id="3lB_DW1wCjmtcMdy3Zhy-5" style="edgeStyle=none;shape=connector;rounded=0;orthogonalLoop=1;jettySize=auto;html=1;exitX=1;exitY=0.5;exitDx=0;exitDy=0;strokeColor=default;align=center;verticalAlign=middle;fontFamily=Helvetica;fontSize=11;fontColor=default;labelBackgroundColor=default;endArrow=none;endFill=0;" edge="1" parent="1" source="4u-6r5kAlAClLr3WJw1b-2" target="3lB_DW1wCjmtcMdy3Zhy-3">
          <mxGeometry relative="1" as="geometry" />
        </mxCell>
        <mxCell id="3lB_DW1wCjmtcMdy3Zhy-6" style="edgeStyle=none;shape=connector;rounded=0;orthogonalLoop=1;jettySize=auto;html=1;exitX=1;exitY=0.5;exitDx=0;exitDy=0;strokeColor=default;align=center;verticalAlign=middle;fontFamily=Helvetica;fontSize=11;fontColor=default;labelBackgroundColor=default;endArrow=none;endFill=0;" edge="1" parent="1" source="4u-6r5kAlAClLr3WJw1b-2" target="3lB_DW1wCjmtcMdy3Zhy-1">
          <mxGeometry relative="1" as="geometry" />
        </mxCell>
        <mxCell id="3lB_DW1wCjmtcMdy3Zhy-7" style="edgeStyle=none;shape=connector;rounded=0;orthogonalLoop=1;jettySize=auto;html=1;exitX=1;exitY=0.5;exitDx=0;exitDy=0;strokeColor=default;align=center;verticalAlign=middle;fontFamily=Helvetica;fontSize=11;fontColor=default;labelBackgroundColor=default;endArrow=none;endFill=0;" edge="1" parent="1" source="4u-6r5kAlAClLr3WJw1b-2" target="3lB_DW1wCjmtcMdy3Zhy-4">
          <mxGeometry relative="1" as="geometry" />
        </mxCell>
        <mxCell id="4u-6r5kAlAClLr3WJw1b-2" value="Usuário(comum)" style="rounded=0;whiteSpace=wrap;html=1;fontFamily=Helvetica;fontSize=11;fontColor=default;labelBackgroundColor=default;" vertex="1" parent="1">
          <mxGeometry x="453" y="120" width="120" height="60" as="geometry" />
        </mxCell>
        <mxCell id="3lB_DW1wCjmtcMdy3Zhy-10" style="edgeStyle=none;shape=connector;rounded=0;orthogonalLoop=1;jettySize=auto;html=1;exitX=1;exitY=0.5;exitDx=0;exitDy=0;strokeColor=default;align=center;verticalAlign=middle;fontFamily=Helvetica;fontSize=11;fontColor=default;labelBackgroundColor=default;endArrow=none;endFill=0;" edge="1" parent="1" source="4u-6r5kAlAClLr3WJw1b-3" target="3lB_DW1wCjmtcMdy3Zhy-8">
          <mxGeometry relative="1" as="geometry" />
        </mxCell>
        <mxCell id="3lB_DW1wCjmtcMdy3Zhy-11" style="edgeStyle=none;shape=connector;rounded=0;orthogonalLoop=1;jettySize=auto;html=1;exitX=1;exitY=0.5;exitDx=0;exitDy=0;strokeColor=default;align=center;verticalAlign=middle;fontFamily=Helvetica;fontSize=11;fontColor=default;labelBackgroundColor=default;endArrow=none;endFill=0;" edge="1" parent="1" source="4u-6r5kAlAClLr3WJw1b-3" target="3lB_DW1wCjmtcMdy3Zhy-9">
          <mxGeometry relative="1" as="geometry" />
        </mxCell>
        <mxCell id="4u-6r5kAlAClLr3WJw1b-3" value="Livro" style="rounded=0;whiteSpace=wrap;html=1;fontFamily=Helvetica;fontSize=11;fontColor=default;labelBackgroundColor=default;" vertex="1" parent="1">
          <mxGeometry x="453" y="360" width="120" height="60" as="geometry" />
        </mxCell>
        <mxCell id="vwDrhNzpsRFTPE5WMlNl-3" style="edgeStyle=none;shape=connector;rounded=0;orthogonalLoop=1;jettySize=auto;html=1;exitX=0.5;exitY=1;exitDx=0;exitDy=0;strokeColor=default;align=center;verticalAlign=middle;fontFamily=Helvetica;fontSize=11;fontColor=default;labelBackgroundColor=default;endArrow=none;endFill=0;" edge="1" parent="1" source="4u-6r5kAlAClLr3WJw1b-4" target="4u-6r5kAlAClLr3WJw1b-3">
          <mxGeometry relative="1" as="geometry" />
        </mxCell>
        <mxCell id="vwDrhNzpsRFTPE5WMlNl-4" value="1:N" style="edgeLabel;html=1;align=center;verticalAlign=middle;resizable=0;points=[];fontFamily=Helvetica;fontSize=11;fontColor=default;labelBackgroundColor=default;" vertex="1" connectable="0" parent="vwDrhNzpsRFTPE5WMlNl-3">
          <mxGeometry x="0.3054" y="2" relative="1" as="geometry">
            <mxPoint x="14" y="8" as="offset" />
          </mxGeometry>
        </mxCell>
        <mxCell id="4u-6r5kAlAClLr3WJw1b-4" value="Reserva" style="rhombus;whiteSpace=wrap;html=1;fontFamily=Helvetica;fontSize=11;fontColor=default;labelBackgroundColor=default;" vertex="1" parent="1">
          <mxGeometry x="474" y="240" width="80" height="80" as="geometry" />
        </mxCell>
        <mxCell id="3lB_DW1wCjmtcMdy3Zhy-18" value="1:N" style="edgeStyle=none;shape=connector;rounded=0;orthogonalLoop=1;jettySize=auto;html=1;exitX=1;exitY=0.5;exitDx=0;exitDy=0;strokeColor=default;align=center;verticalAlign=middle;fontFamily=Helvetica;fontSize=11;fontColor=default;labelBackgroundColor=default;endArrow=none;endFill=0;" edge="1" parent="1" source="vwDrhNzpsRFTPE5WMlNl-7">
          <mxGeometry x="0.6973" y="6" relative="1" as="geometry">
            <mxPoint x="450" y="400" as="targetPoint" />
            <mxPoint as="offset" />
          </mxGeometry>
        </mxCell>
        <mxCell id="vwDrhNzpsRFTPE5WMlNl-7" value="Gerencia" style="rhombus;whiteSpace=wrap;html=1;fontFamily=Helvetica;fontSize=11;fontColor=default;labelBackgroundColor=default;" vertex="1" parent="1">
          <mxGeometry x="230" y="360" width="80" height="80" as="geometry" />
        </mxCell>
        <mxCell id="3lB_DW1wCjmtcMdy3Zhy-1" value="CPF" style="ellipse;whiteSpace=wrap;html=1;fontFamily=Helvetica;fontSize=11;fontColor=default;labelBackgroundColor=default;" vertex="1" parent="1">
          <mxGeometry x="650" y="110" width="120" height="80" as="geometry" />
        </mxCell>
        <mxCell id="3lB_DW1wCjmtcMdy3Zhy-3" value="Contato" style="ellipse;whiteSpace=wrap;html=1;fontFamily=Helvetica;fontSize=11;fontColor=default;labelBackgroundColor=default;" vertex="1" parent="1">
          <mxGeometry x="650" y="10" width="120" height="80" as="geometry" />
        </mxCell>
        <mxCell id="3lB_DW1wCjmtcMdy3Zhy-4" value="Livros Reservados" style="ellipse;whiteSpace=wrap;html=1;fontFamily=Helvetica;fontSize=11;fontColor=default;labelBackgroundColor=default;" vertex="1" parent="1">
          <mxGeometry x="650" y="210" width="120" height="80" as="geometry" />
        </mxCell>
        <mxCell id="3lB_DW1wCjmtcMdy3Zhy-8" value="Nome" style="ellipse;whiteSpace=wrap;html=1;fontFamily=Helvetica;fontSize=11;fontColor=default;labelBackgroundColor=default;" vertex="1" parent="1">
          <mxGeometry x="662.5" y="330" width="120" height="80" as="geometry" />
        </mxCell>
        <mxCell id="3lB_DW1wCjmtcMdy3Zhy-9" value="Status:&lt;br&gt;(Emprestado ou disponível)" style="ellipse;whiteSpace=wrap;html=1;fontFamily=Helvetica;fontSize=11;fontColor=default;labelBackgroundColor=default;" vertex="1" parent="1">
          <mxGeometry x="650" y="420" width="145" height="70" as="geometry" />
        </mxCell>
        <mxCell id="3lB_DW1wCjmtcMdy3Zhy-14" value="1:N" style="edgeStyle=none;shape=connector;rounded=0;orthogonalLoop=1;jettySize=auto;html=1;strokeColor=default;align=center;verticalAlign=middle;fontFamily=Helvetica;fontSize=11;fontColor=default;labelBackgroundColor=default;endArrow=none;endFill=0;" edge="1" parent="1" source="3lB_DW1wCjmtcMdy3Zhy-13" target="vwDrhNzpsRFTPE5WMlNl-7">
          <mxGeometry x="-0.7623" y="-5" relative="1" as="geometry">
            <mxPoint as="offset" />
          </mxGeometry>
        </mxCell>
        <mxCell id="3lB_DW1wCjmtcMdy3Zhy-23" style="edgeStyle=none;shape=connector;rounded=0;orthogonalLoop=1;jettySize=auto;html=1;exitX=0.5;exitY=0;exitDx=0;exitDy=0;strokeColor=default;align=center;verticalAlign=middle;fontFamily=Helvetica;fontSize=11;fontColor=default;labelBackgroundColor=default;endArrow=none;endFill=0;" edge="1" parent="1" source="3lB_DW1wCjmtcMdy3Zhy-13" target="3lB_DW1wCjmtcMdy3Zhy-21">
          <mxGeometry relative="1" as="geometry" />
        </mxCell>
        <mxCell id="3lB_DW1wCjmtcMdy3Zhy-24" style="edgeStyle=none;shape=connector;rounded=0;orthogonalLoop=1;jettySize=auto;html=1;exitX=0.5;exitY=0;exitDx=0;exitDy=0;strokeColor=default;align=center;verticalAlign=middle;fontFamily=Helvetica;fontSize=11;fontColor=default;labelBackgroundColor=default;endArrow=none;endFill=0;" edge="1" parent="1" source="3lB_DW1wCjmtcMdy3Zhy-13" target="3lB_DW1wCjmtcMdy3Zhy-22">
          <mxGeometry relative="1" as="geometry" />
        </mxCell>
        <mxCell id="3lB_DW1wCjmtcMdy3Zhy-13" value="Admin" style="rounded=0;whiteSpace=wrap;html=1;fontFamily=Helvetica;fontSize=11;fontColor=default;labelBackgroundColor=default;" vertex="1" parent="1">
          <mxGeometry x="210" y="240" width="120" height="60" as="geometry" />
        </mxCell>
        <mxCell id="3lB_DW1wCjmtcMdy3Zhy-21" value="CPF" style="ellipse;whiteSpace=wrap;html=1;fontFamily=Helvetica;fontSize=11;fontColor=default;labelBackgroundColor=default;" vertex="1" parent="1">
          <mxGeometry x="140" y="90" width="120" height="80" as="geometry" />
        </mxCell>
        <mxCell id="3lB_DW1wCjmtcMdy3Zhy-22" value="Cargo" style="ellipse;whiteSpace=wrap;html=1;fontFamily=Helvetica;fontSize=11;fontColor=default;labelBackgroundColor=default;" vertex="1" parent="1">
          <mxGeometry x="280" y="90" width="120" height="80" as="geometry" />
        </mxCell>
      </root>
    </mxGraphModel>
  </diagram>
  <diagram name="Página-1" id="AEkCDaV81PiAAGtS1x3o">
    <mxGraphModel dx="335" dy="412" grid="1" gridSize="10" guides="1" tooltips="1" connect="1" arrows="1" fold="1" page="1" pageScale="1" pageWidth="827" pageHeight="1169" math="0" shadow="0">
      <root>
        <mxCell id="0" />
        <mxCell id="1" parent="0" />
        <mxCell id="EInX4FQBDb-V_3y1I1yb-6" style="rounded=0;orthogonalLoop=1;jettySize=auto;html=1;exitX=1;exitY=0.3333333333333333;exitDx=0;exitDy=0;exitPerimeter=0;" edge="1" parent="1" source="EInX4FQBDb-V_3y1I1yb-1" target="EInX4FQBDb-V_3y1I1yb-4">
          <mxGeometry relative="1" as="geometry" />
        </mxCell>
        <mxCell id="xGgViO5FNOMI-JUhfNwM-2" style="edgeStyle=none;shape=connector;rounded=0;orthogonalLoop=1;jettySize=auto;html=1;exitX=1;exitY=0.3333333333333333;exitDx=0;exitDy=0;exitPerimeter=0;strokeColor=default;align=center;verticalAlign=middle;fontFamily=Helvetica;fontSize=11;fontColor=default;labelBackgroundColor=default;endArrow=classic;" edge="1" parent="1" source="EInX4FQBDb-V_3y1I1yb-1" target="xGgViO5FNOMI-JUhfNwM-1">
          <mxGeometry relative="1" as="geometry" />
        </mxCell>
        <mxCell id="xGgViO5FNOMI-JUhfNwM-6" style="edgeStyle=none;shape=connector;rounded=0;orthogonalLoop=1;jettySize=auto;html=1;exitX=1;exitY=0.3333333333333333;exitDx=0;exitDy=0;exitPerimeter=0;strokeColor=default;align=center;verticalAlign=middle;fontFamily=Helvetica;fontSize=11;fontColor=default;labelBackgroundColor=default;endArrow=classic;" edge="1" parent="1" source="EInX4FQBDb-V_3y1I1yb-1" target="xGgViO5FNOMI-JUhfNwM-5">
          <mxGeometry relative="1" as="geometry" />
        </mxCell>
        <mxCell id="EInX4FQBDb-V_3y1I1yb-1" value="Usuário(comum)" style="shape=umlActor;verticalLabelPosition=bottom;verticalAlign=top;html=1;outlineConnect=0;" vertex="1" parent="1">
          <mxGeometry x="180" y="220" width="30" height="60" as="geometry" />
        </mxCell>
        <mxCell id="EInX4FQBDb-V_3y1I1yb-3" value="Cadastrar seu livro(Create)" style="ellipse;whiteSpace=wrap;html=1;" vertex="1" parent="1">
          <mxGeometry x="470" y="370" width="120" height="80" as="geometry" />
        </mxCell>
        <mxCell id="EInX4FQBDb-V_3y1I1yb-4" value="Visualizar seu livro(Read)" style="ellipse;whiteSpace=wrap;html=1;" vertex="1" parent="1">
          <mxGeometry x="300" y="260" width="120" height="80" as="geometry" />
        </mxCell>
        <mxCell id="EInX4FQBDb-V_3y1I1yb-9" style="rounded=0;orthogonalLoop=1;jettySize=auto;html=1;exitX=0;exitY=0.3333333333333333;exitDx=0;exitDy=0;exitPerimeter=0;" edge="1" parent="1" source="EInX4FQBDb-V_3y1I1yb-7" target="EInX4FQBDb-V_3y1I1yb-8">
          <mxGeometry relative="1" as="geometry" />
        </mxCell>
        <mxCell id="EInX4FQBDb-V_3y1I1yb-12" style="edgeStyle=none;shape=connector;rounded=0;orthogonalLoop=1;jettySize=auto;html=1;exitX=0;exitY=0.3333333333333333;exitDx=0;exitDy=0;exitPerimeter=0;strokeColor=default;align=center;verticalAlign=middle;fontFamily=Helvetica;fontSize=11;fontColor=default;labelBackgroundColor=default;endArrow=classic;" edge="1" parent="1" source="EInX4FQBDb-V_3y1I1yb-7" target="EInX4FQBDb-V_3y1I1yb-11">
          <mxGeometry relative="1" as="geometry" />
        </mxCell>
        <mxCell id="xGgViO5FNOMI-JUhfNwM-3" style="edgeStyle=none;shape=connector;rounded=0;orthogonalLoop=1;jettySize=auto;html=1;exitX=0;exitY=0.3333333333333333;exitDx=0;exitDy=0;exitPerimeter=0;strokeColor=default;align=center;verticalAlign=middle;fontFamily=Helvetica;fontSize=11;fontColor=default;labelBackgroundColor=default;endArrow=classic;" edge="1" parent="1" source="EInX4FQBDb-V_3y1I1yb-7" target="EInX4FQBDb-V_3y1I1yb-3">
          <mxGeometry relative="1" as="geometry" />
        </mxCell>
        <mxCell id="EInX4FQBDb-V_3y1I1yb-7" value="Admin" style="shape=umlActor;verticalLabelPosition=bottom;verticalAlign=top;html=1;outlineConnect=0;" vertex="1" parent="1">
          <mxGeometry x="670" y="290" width="30" height="60" as="geometry" />
        </mxCell>
        <mxCell id="EInX4FQBDb-V_3y1I1yb-8" value="Registrar vendas realizadas(Create)" style="ellipse;whiteSpace=wrap;html=1;" vertex="1" parent="1">
          <mxGeometry x="470" y="170" width="120" height="80" as="geometry" />
        </mxCell>
        <mxCell id="EInX4FQBDb-V_3y1I1yb-11" value="Emitir relatório(Read)" style="ellipse;whiteSpace=wrap;html=1;" vertex="1" parent="1">
          <mxGeometry x="470" y="270" width="120" height="80" as="geometry" />
        </mxCell>
        <mxCell id="xGgViO5FNOMI-JUhfNwM-1" value="Comprar livros(Create)" style="ellipse;whiteSpace=wrap;html=1;" vertex="1" parent="1">
          <mxGeometry x="300" y="150" width="120" height="80" as="geometry" />
        </mxCell>
        <mxCell id="xGgViO5FNOMI-JUhfNwM-5" value="Reservar livros(Create" style="ellipse;whiteSpace=wrap;html=1;" vertex="1" parent="1">
          <mxGeometry x="300" y="370" width="120" height="80" as="geometry" />
        </mxCell>
      </root>
    </mxGraphModel>
  </diagram>
</mxfile>
